<?xml version="1.0" encoding="utf-8"?>
<!-- Generator: Adobe Illustrator 15.0.0, SVG Export Plug-In . SVG Version: 6.00 Build 0)  -->
<!DOCTYPE svg PUBLIC "-//W3C//DTD SVG 1.1//EN" "http://www.w3.org/Graphics/SVG/1.1/DTD/svg11.dtd">
<svg version="1.1" id="Layer_1" xmlns="http://www.w3.org/2000/svg" xmlns:xlink="http://www.w3.org/1999/xlink" x="0px" y="0px"
	 width="82px" height="82px" viewBox="0 0 82 82" enable-background="new 0 0 82 82" xml:space="preserve">
<g>
	<path fill="#F0C6C3" d="M41.498,82c-22.607,0-41-18.393-41-41s18.392-41,41-41c22.608,0,41.001,18.392,41.001,41
		S64.106,82,41.498,82z M41.498,2c-21.504,0-39,17.495-39,39c0,21.504,17.495,39,39,39c21.505,0,39.001-17.496,39.001-39
		C80.499,19.495,63.003,2,41.498,2z"/>
	<path fill="#F0C6C3" d="M32.814,34.904h3.721v-3.616c0-1.596,0.04-4.056,1.198-5.579c1.221-1.613,2.896-2.71,5.777-2.71
		c4.695,0,6.672,0.67,6.672,0.67l-0.93,5.514c0,0-1.551-0.449-2.998-0.449s-2.744,0.519-2.744,1.965v4.205h5.936l-0.414,5.386
		h-5.521v18.708h-6.976V40.29h-3.721V34.904z"/>
</g>
</svg>
