<?xml version="1.0" encoding="utf-8"?>
<!-- Generator: Adobe Illustrator 15.0.0, SVG Export Plug-In . SVG Version: 6.00 Build 0)  -->
<!DOCTYPE svg PUBLIC "-//W3C//DTD SVG 1.1//EN" "http://www.w3.org/Graphics/SVG/1.1/DTD/svg11.dtd">
<svg version="1.1" id="Layer_1" xmlns="http://www.w3.org/2000/svg" xmlns:xlink="http://www.w3.org/1999/xlink" x="0px" y="0px"
	 width="82px" height="82px" viewBox="0 0 82 82" enable-background="new 0 0 82 82" xml:space="preserve">
<g>
	<path fill="#F0C6C3" d="M41.112,81.999c-22.608,0-41.001-18.393-41.001-41s18.393-41,41.001-41c22.607,0,41,18.393,41,41
		S63.719,81.999,41.112,81.999z M41.112,1.999c-21.505,0-39.001,17.495-39.001,39s17.496,39,39.001,39c21.504,0,39-17.495,39-39
		S62.616,1.999,41.112,1.999z"/>
	<path fill="#F0C6C3" d="M35.158,57.111c-4.279,0-7.368-2.707-7.368-5.961c0-3.19,3.832-5.845,8.11-5.798
		c0.998,0.01,1.93,0.17,2.773,0.442c2.32,1.619,3.986,2.529,4.457,4.371c0.089,0.375,0.137,0.757,0.137,1.15
		C43.268,54.57,41.172,57.111,35.158,57.111 M36.282,38.028c-2.87-0.085-5.6-3.212-6.095-6.982
		c-0.495-3.773,1.431-6.659,4.301-6.575c2.87,0.088,5.6,3.112,6.095,6.885C41.078,35.126,39.153,38.115,36.282,38.028
		 M42.234,43.616c-1.007-0.713-2.932-2.448-2.932-3.468c0-1.198,0.341-1.785,2.139-3.19c1.842-1.442,3.148-3.466,3.148-5.82
		c0-2.806-1.25-5.538-3.593-6.441h3.533l2.495-1.803H35.879c-4.995,0-9.697,3.787-9.697,8.173c0,4.481,3.406,8.1,8.488,8.1
		c0.354,0,0.696-0.008,1.034-0.028c-0.331,0.627-0.568,1.343-0.568,2.079c0,1.246,0.671,2.257,1.518,3.08
		c-0.64,0-1.259,0.02-1.931,0.02c-6.188,0-10.953,3.942-10.953,8.032c0,4.027,5.222,6.545,11.41,6.545
		c7.055,0,10.953-4.004,10.953-8.033C46.133,47.632,45.18,45.697,42.234,43.616 M58.45,38.359h-4.339v-4.34h-3.492v4.34h-4.338
		v3.493h4.338v4.34h3.492v-4.34h4.339V38.359z"/>
</g>
</svg>
