<?xml version="1.0" encoding="utf-8"?>
<!-- Generator: Adobe Illustrator 15.0.0, SVG Export Plug-In . SVG Version: 6.00 Build 0)  -->
<!DOCTYPE svg PUBLIC "-//W3C//DTD SVG 1.1//EN" "http://www.w3.org/Graphics/SVG/1.1/DTD/svg11.dtd">
<svg version="1.1" id="Layer_1" xmlns="http://www.w3.org/2000/svg" xmlns:xlink="http://www.w3.org/1999/xlink" x="0px" y="0px"
	 width="82px" height="82px" viewBox="0 0 82 82" enable-background="new 0 0 82 82" xml:space="preserve">
<g>
	<path fill="#F0C6C3" d="M40.887,82c-22.607,0-41-18.393-41-41s18.393-41,41-41s41,18.393,41,41S63.494,82,40.887,82z M40.887,2
		c-21.505,0-39,17.495-39,39s17.495,39,39,39s39-17.495,39-39S62.392,2,40.887,2z"/>
	<path fill="#F0C6C3" d="M30.812,55.907h-7.021V33.433h7.021V55.907z M27.123,30.621h-0.052c-2.538,0-4.185-1.721-4.185-3.897
		c0-2.216,1.694-3.9,4.287-3.9c2.586,0,4.178,1.681,4.229,3.896C31.403,28.896,29.76,30.621,27.123,30.621z M58.887,55.907h-7.959
		V44.275c0-3.044-1.242-5.12-3.979-5.12c-2.093,0-3.256,1.4-3.799,2.755c-0.206,0.484-0.172,1.157-0.172,1.835v12.162h-7.883
		c0,0,0.104-20.602,0-22.475h7.883v3.524c0.466-1.54,2.984-3.74,7.003-3.74c4.987,0,8.906,3.231,8.906,10.193V55.907z"/>
</g>
</svg>
