<svg xmlns="http://www.w3.org/2000/svg" version="1.1" x="0" y="0" width="327" height="347.7" viewBox="0" enable-background="new 0 0 326.984 347.722" xml:space="preserve"><path fill="#F0C5C3" d="M10.9 107c0-14 9.9-31.3 22.1-38.3L142.5 5.5c12.2-7 32-7 44.2 0l109.5 63.2c12.2 7 22.1 24.2 22.1 38.3v126.5c0 14-9.9 31.3-22.1 38.3l-109.5 63.2c-12.2 7-32 7-44.2 0L32.9 271.7c-12.2-7-22.1-24.2-22.1-38.3V107z"/><path fill="#FFFFFF" d="M162.9 101.9v4.9h-52.5v138.5h-5.6V106.8H51.9v-4.9H162.9zM194.2 185.4v60h-5.6V101.9h34.3c16.2 0 28.5 3.5 36.9 10.4 8.4 6.9 12.6 17.3 12.6 31.2 0 6.1-1.2 11.6-3.5 16.8 -2.3 5.1-5.7 9.6-10 13.3 -4.4 3.7-9.6 6.6-15.7 8.7 -6.1 2.1-12.8 3.1-20.2 3.1H194.2zM194.2 180.8h28.7c6.7 0 12.8-1 18.2-2.9 5.4-1.9 10-4.5 13.8-7.9 3.8-3.3 6.7-7.3 8.7-11.8 2-4.6 3.1-9.5 3.1-14.7 0-12.1-3.6-21.3-10.9-27.6 -7.3-6.3-18.2-9.5-32.8-9.5h-28.7V180.8z"/></svg>